<svg width="136" height="28" viewBox="0 0 136 28" fill="none" xmlns="http://www.w3.org/2000/svg">
<path d="M81.4696 16.7317H78.3509L74.7946 12.1687H86.7944V27.0966H82.1967V23.7578C81.4038 24.8085 80.3432 25.6657 79.0145 26.3291C77.6857 26.9926 76.1398 27.3243 74.3762 27.3243C71.8454 27.3243 69.6156 26.7616 67.6875 25.6362C65.7572 24.51 64.2623 22.9106 63.2017 20.8381C62.1417 18.7656 61.6114 16.3734 61.6114 13.6615C61.6114 10.9248 62.1499 8.52631 63.2264 6.46628C64.2552 4.45143 65.8592 2.78825 67.8339 1.6881C69.8405 0.562697 72.198 0 74.9065 0C77.0298 0 78.9349 0.409268 80.6223 1.22782C82.2614 2.00476 83.6697 3.19582 84.7094 4.68363C85.5556 5.9093 86.144 7.2903 86.4435 8.74262H80.6119C80.2094 7.71381 79.6012 6.86503 78.7874 6.19632C77.7126 5.31394 76.3712 4.87271 74.7623 4.87271C73.28 4.87271 71.9891 5.24342 70.8906 5.98484C69.7922 6.72629 68.9488 7.7629 68.3609 9.09482C67.7725 10.4267 67.4786 11.949 67.4786 13.6615C67.4863 16.2963 68.1328 18.4198 69.4193 20.032C70.7058 21.6443 72.487 22.4503 74.7623 22.4503C76.4228 22.4511 77.9204 22.0364 79.1696 21.0882C80.0986 20.3834 81.2343 19.2973 81.4696 17.0775V16.7317Z" fill="#040804"/>
<path d="M91.1025 0.227661V27.0979H109.54V22.1443H96.8529V16.1396H106.819V11.186H96.8529V5.18124H109.54V0.227661H91.1025Z" fill="#040804"/>
<path fill-rule="evenodd" clip-rule="evenodd" d="M127.331 16.9668C130.912 16.7529 132.425 15.0374 133.239 13.72C134.053 12.4026 134.467 10.8862 134.467 9.17197C134.467 7.38063 134.057 5.80697 133.239 4.45103C132.415 3.0894 131.208 2.00148 129.77 1.32363C128.279 0.594652 126.56 0.230164 124.614 0.230164H113.69V27.0966H119.439V18.0777H121.856L128.895 27.0966H135.232L127.331 16.9668ZM119.439 13.2784V5.027H124.154C125.509 5.027 126.589 5.39812 127.394 6.14034C128.199 6.88261 128.602 7.89314 128.602 9.17197C128.602 10.4259 128.199 11.4236 127.394 12.165C126.589 12.9065 125.509 13.2775 124.154 13.2784H119.439Z" fill="#040804"/>
<path d="M52.2538 0.230164H58.003V27.0942H52.2538V0.230164Z" fill="#040804"/>
<path d="M0 0.227661V27.0979H18.4383V22.1443H5.75056V16.1396H15.7171V11.186H5.75056V5.18124H18.4383V0.227661H0Z" fill="#040804"/>
<path d="M42.4774 0.2276L38.5638 5.24249L41.9979 9.64235L49.3452 0.22765L42.4774 0.2276Z" fill="#040804"/>
<path d="M21.5033 27.1063L31.9924 13.6655L21.5058 0.227661H28.372L38.8599 13.667L28.372 27.1063H21.5033Z" fill="#040804"/>
<path d="M41.9982 17.6913L49.3452 27.1063H42.4739L38.5623 22.0939L41.9982 17.6913Z" fill="#040804"/>
</svg>
